<svg xmlns="http://www.w3.org/2000/svg" class="chakra-icon css-1ay5vak" viewBox="0 0 146 33"><path fill="#fff" d="M52.646 25.127V6.421h4.766v18.706h-4.766Zm-11.89 0V6.421h4.766v18.706h-4.766Zm3.946-7.354v-4.151h8.764v4.151h-8.764Zm24.853 7.354v-4.15h-.769v-4.434c0-.65-.154-1.127-.461-1.435-.29-.325-.778-.487-1.46-.487a92.165 92.165 0 0 0-3.434.102c-.701.035-1.342.069-1.923.103v-3.895a65.373 65.373 0 0 1 3.204-.18 61.215 61.215 0 0 1 1.691-.025c1.452 0 2.682.214 3.69.64 1.025.428 1.802 1.068 2.332 1.923.547.854.82 1.939.82 3.254v8.584h-3.69Zm-4.485.36c-.99 0-1.87-.18-2.639-.539-.769-.359-1.375-.871-1.82-1.537-.426-.684-.64-1.495-.64-2.435 0-1.059.282-1.913.846-2.562.563-.667 1.34-1.154 2.331-1.461.991-.308 2.127-.461 3.409-.461h2.742V18.9h-2.742c-.632 0-1.12.162-1.46.486-.343.308-.513.726-.513 1.256 0 .512.17.931.512 1.256.342.307.829.46 1.46.46.41 0 .77-.067 1.077-.204.325-.154.59-.41.794-.769.205-.359.325-.854.36-1.486l1.075 1.025c-.085.974-.324 1.802-.717 2.486a3.83 3.83 0 0 1-1.589 1.537c-.666.359-1.495.538-2.486.538Zm16.903.102c-2.05 0-3.664-.419-4.843-1.256-1.179-.854-1.81-2.05-1.896-3.587h4.1c.068.427.333.794.794 1.101.461.308 1.11.462 1.948.462.598 0 1.11-.086 1.537-.257.444-.188.666-.486.666-.896 0-.36-.17-.65-.512-.872-.342-.239-.965-.401-1.87-.487l-.975-.102c-1.81-.188-3.143-.683-3.997-1.486-.854-.803-1.281-1.811-1.281-3.024 0-1.042.256-1.896.768-2.563.513-.683 1.222-1.195 2.127-1.537.906-.342 1.94-.513 3.101-.513 1.896 0 3.425.419 4.587 1.256 1.162.82 1.777 2.007 1.845 3.562h-4.1c-.069-.427-.3-.786-.692-1.076-.393-.308-.957-.462-1.691-.462-.53 0-.965.094-1.307.282-.325.188-.487.453-.487.795 0 .358.154.623.461.794.325.17.837.299 1.538.384l.974.103c1.81.188 3.203.692 4.176 1.512.991.803 1.487 1.862 1.487 3.177 0 .974-.265 1.811-.795 2.512-.512.7-1.255 1.238-2.23 1.614-.956.376-2.1.564-3.433.564Zm8.777-.462V6.421h4.664v10.66H94.8c0-1.435.18-2.64.538-3.613.359-.974.88-1.708 1.563-2.204.7-.495 1.563-.743 2.588-.743h.206c1.537 0 2.707.555 3.51 1.666.82 1.11 1.23 2.742 1.23 4.894v8.046H99.77v-8.225c0-.65-.196-1.179-.589-1.589-.393-.427-.914-.64-1.563-.64-.65 0-1.179.213-1.589.64-.41.41-.615.957-.615 1.64v8.174H90.75Zm25.017.513c-1.794 0-3.314-.333-4.561-1a6.793 6.793 0 0 1-2.819-2.818c-.649-1.23-.974-2.682-.974-4.357V6.421h4.766v11.147c0 .735.137 1.375.41 1.922.291.547.701.965 1.23 1.256.53.29 1.179.435 1.948.435.769 0 1.418-.145 1.948-.436.529-.29.931-.7 1.204-1.23.273-.546.41-1.195.41-1.947V6.421h4.766v11.044c0 1.675-.324 3.127-.974 4.357-.632 1.213-1.571 2.152-2.818 2.819-1.23.666-2.742.999-4.536.999Zm11.569 4.613v-19.27h3.69v6.098h-.41c.052-1.384.325-2.562.82-3.536.513-.974 1.205-1.709 2.076-2.204.871-.512 1.871-.769 2.998-.769.974 0 1.854.18 2.64.538.785.342 1.46.838 2.024 1.487a6.356 6.356 0 0 1 1.281 2.255c.308.871.462 1.828.462 2.87v.615a9.815 9.815 0 0 1-.41 2.895 6.83 6.83 0 0 1-1.23 2.307 5.59 5.59 0 0 1-2.025 1.512c-.786.358-1.691.538-2.716.538-1.094 0-2.059-.214-2.896-.64-.837-.445-1.503-1.103-1.999-1.974-.478-.888-.734-1.999-.768-3.331L132 21.027v9.226h-4.664Zm7.79-8.508c.615 0 1.154-.154 1.615-.461a3.148 3.148 0 0 0 1.102-1.333c.273-.564.41-1.204.41-1.922 0-.734-.137-1.366-.41-1.896-.257-.547-.615-.965-1.077-1.256-.461-.307-1.007-.46-1.64-.46-.563 0-1.093.127-1.588.383a3.094 3.094 0 0 0-1.179 1.128c-.308.495-.461 1.093-.461 1.794v.871c0 .666.162 1.239.487 1.717.324.461.734.82 1.23 1.076.495.24.999.359 1.511.359ZM7.716 24.914 3.25 23.717l8.226-19.91c.16-.389.524-.656.942-.693l4.003-.352a.225.225 0 0 1 .229.31L7.716 24.914ZM18.135 26.464c-.146.354-.46.61-.836.68l-4.29.797a.225.225 0 0 1-.25-.306l9.16-22.418 4.466 1.197-8.25 20.05Z"/><path fill="#fff" d="m15.97 22.425 1.197-4.467 6.727 1.802-1.875 4.286-6.049-1.62ZM5.38 10.36l1.815-4.3 5.095 1.365-1.197 4.467L5.38 10.36ZM12.235 12.297 14.064 8l9.877 2.547-1.985 4.255-9.721-2.505Z"/><path fill="#FF3F3F" d="M23.75 16.389 26 11.099l1.17.313-.228 5.832-3.193-.855Z"/><path fill="#fff" d="m8.284 20.366 2.203-4.198 6.98 1.87-1.798 4.306-7.385-1.978Z"/><path fill="#FF3F3F" d="m2.79 18.894.315-5.843 2.902.777-2.226 5.33-.99-.264Z"/><path fill="url(#a)" d="M10.5 11.76 3.254 23.712l5.147-12.527 2.097.573Z"/><path fill="url(#b)" d="m19.16 18.473 7.156-12.01-5.112 12.575-2.045-.565Z"/><defs><linearGradient id="a" x1="8.808" x2="5.802" y1="12.186" y2="18.302" gradientUnits="userSpaceOnUse"><stop stop-color="#D8D8D8"/><stop offset="1" stop-color="#fff" stop-opacity="0"/></linearGradient><linearGradient id="b" x1="20.997" x2="24.399" y1="18.847" y2="9.715" gradientUnits="userSpaceOnUse"><stop stop-color="#DFDFDF"/><stop offset="1" stop-color="#fff" stop-opacity="0"/></linearGradient></defs></svg>